{"asset":{"generator":"Khronos glTF Spline I/O v0.0.1","version":"2.0"},"scenes":[{"nodes":[0]}],"nodes":[{"name":"","children":[1,2,3,4,5,6,7,8,9,10,11,12,13,14,15,16,17,18,19,20,21]},{"name":"Cube 6","matrix":[1,0,0,0,0,1,0,0,0,0,1,0,6.295043974067028,-69.49999618530273,7.673130035400391,1],"mesh":0},{"name":"Directional Light","translation":[-312.8304379578461,579.0926607675702,359.9848439289345],"rotation":[-0.49441626078657147,-0.12500678633764464,0.21085267396609728,0.8339466495650103],"extensions":{"KHR_lights_punctual":{"light":0}}},{"name":"Subdiv 11","matrix":[0.9659258262890676,0,0.2588190451025206,0,0,1,0,0,-0.2588190451025206,0,0.9659258262890676,0,-85.94055175781332,-282.5,-63.85102081298828,1],"mesh":1},{"name":"Cube 5","matrix":[0.9816271834476635,0,-0.19080899537654472,0,0,1,0,0,0.19080899537654472,0,0.9816271834476635,0,78.65746691718252,-282.5,-63.85102081298828,1],"mesh":2},{"name":"Subdiv 10","matrix":[-1,0,0,0,0,1,0,0,0,0,0.810126582278481,0,-202.2643158574039,33.28575414752959,-75.65376291395744,1],"mesh":3},{"name":"Cube 4","matrix":[1,0,0,0,0,1,0,0,0,0,0.810126582278481,0,197.1005309617539,33.28575414752959,-75.65376291395744,1],"mesh":4},{"name":"Cube 3","matrix":[0.9998476951563913,0,0.01745240643728351,0,0,1,0,0,-0.01745240643728351,0,0.9998476951563913,0,-3.5230848867384674,212.80995788295152,-61.7136150837467,1],"mesh":5},{"name":"Subdiv 5","matrix":[1,0,0,0,0,1,0,0,0,0,1,0,36.921875,-114.5512261918484,21,1],"mesh":6},{"name":"Subdiv 2","matrix":[1,0,0,0,0,1,0,0,0,0,1,0,27.048709840630117,-25.671875,21.727455139160156,1],"mesh":7},{"name":"Subdiv 5","matrix":[1,0,0,0,0,1,0,0,0,0,1,0,-33.578125000000064,-117.5512261918484,20.5,1],"mesh":8},{"name":"Subdiv","matrix":[1,0,0,0,0,1,0,0,0,0,1,0,-23.70495984063023,-28.671875,21.727455139160156,1],"mesh":9},{"name":"Subdiv 7","matrix":[1,0,0,0,0,1,0,0,0,0,1,0,-99.65494085740384,76.78575414752959,52.727455139160156,1],"mesh":10},{"name":"Subdiv 4","matrix":[1,0,0,0,0,1,0,0,0,0,1,0,-99.65494085740384,76.78575414752959,43.227455139160156,1],"mesh":11},{"name":"Subdiv 6","matrix":[1,0,0,0,0,1,0,0,0,0,1,0,95.91303096175398,76.78575414752959,48.227455139160156,1],"mesh":12},{"name":"Subdiv 3","matrix":[1,0,0,0,0,1,0,0,0,0,1,0,95.91303096175398,76.78575414752959,43.227455139160156,1],"mesh":13},{"name":"Subdiv 9","matrix":[1,0,0,0,0,1,0,0,0,0,1,0,96.62270961165628,138.9163104106392,43.227455139160156,1],"mesh":14},{"name":"Subdiv 8","matrix":[1,0,0,0,0,1,0,0,0,0,1,0,-99.02338720750156,138.9163104106392,43.227455139160156,1],"mesh":15},{"name":"Cube 2","matrix":[1,0,0,0,0,1,0,0,0,0,1,0,0.5,33.28575414752959,43.227455139160156,1],"mesh":16},{"name":"Cube","matrix":[1,0,0,0,0,1,0,0,0,0,1,0,0,0,-72.88713073730469,1],"mesh":17},{"name":"Default Camera","camera":0,"translation":[503.68118839863024,48.11999150463589,854.3941320074733],"rotation":[-0.06710866175105931,0.25052180951205644,0.01741067087430125,0.965625247710774],"children":[22]},{"name":"Personal Camera","camera":1,"translation":[503.6811883986307,48.11999150463609,854.394132007474],"rotation":[-0.06710866175105931,0.2505218095120564,0.017410670874301253,0.965625247710774]},{"name":"Default Directional Light","translation":[850000,1300000,1000000],"rotation":[-0.45895513091666534,0.1367267597249462,-0.25064115022945466,0.8413352451859125],"extensions":{"KHR_lights_punctual":{"light":1}}}],"cameras":[{"type":"orthographic","orthographic":{"xmag":1366,"ymag":695,"zfar":50000,"znear":-50000}},{"type":"orthographic","orthographic":{"xmag":1366,"ymag":638,"zfar":100000,"znear":-100000}}],"meshes":[{"primitives":[{"attributes":{"POSITION":1,"NORMAL":2},"indices":0}]},{"primitives":[{"attributes":{"POSITION":4,"NORMAL":5},"indices":3}]},{"primitives":[{"attributes":{"POSITION":7,"NORMAL":8},"indices":6}]},{"primitives":[{"attributes":{"POSITION":10,"NORMAL":11},"indices":9}]},{"primitives":[{"attributes":{"POSITION":13,"NORMAL":14},"indices":12}]},{"primitives":[{"attributes":{"POSITION":16,"NORMAL":17},"indices":15}]},{"primitives":[{"attributes":{"POSITION":19,"NORMAL":20},"indices":18}]},{"primitives":[{"attributes":{"POSITION":22,"NORMAL":23},"indices":21}]},{"primitives":[{"attributes":{"POSITION":25,"NORMAL":26},"indices":24}]},{"primitives":[{"attributes":{"POSITION":28,"NORMAL":29},"indices":27}]},{"primitives":[{"attributes":{"POSITION":31,"NORMAL":32},"indices":30}]},{"primitives":[{"attributes":{"POSITION":34,"NORMAL":35},"indices":33}]},{"primitives":[{"attributes":{"POSITION":37,"NORMAL":38},"indices":36}]},{"primitives":[{"attributes":{"POSITION":40,"NORMAL":41},"indices":39}]},{"primitives":[{"attributes":{"POSITION":43,"NORMAL":44},"indices":42}]},{"primitives":[{"attributes":{"POSITION":46,"NORMAL":47},"indices":45}]},{"primitives":[{"attributes":{"POSITION":49,"NORMAL":50},"indices":48}]},{"primitives":[{"attributes":{"POSITION":52,"NORMAL":53},"indices":51}]}],"buffers":[{"uri":"data:application/octet-stream;base64,","byteLength":168960},{"uri":"data:application/octet-stream;base64,","byteLength":57600},{"uri":"data:application/octet-stream;base64,","byteLength":57600},{"uri":"data:application/octet-stream;base64,","byteLength":307200},{"uri":"data:application/octet-stream;base64,","byteLength":307200},{"uri":"data:application/octet-stream;base64,","byteLength":46080},{"uri":"data:application/octet-stream;base64,","byteLength":30720},{"uri":"data:application/octet-stream;base64,","byteLength":30720},{"uri":"data:application/octet-stream;base64,","byteLength":30720},{"uri":"data:application/octet-stream;base64,","byteLength":30720},{"uri":"data:application/octet-stream;base64,","byteLength":30720},{"uri":"data:application/octet-stream;base64,","byteLength":30720},{"uri":"data:application/octet-stream;base64,","byteLength":30720},{"uri":"data:application/octet-stream;base64,","byteLength":30720},{"uri":"data:application/octet-stream;base64,","byteLength":53760},{"uri":"data:application/octet-stream;base64,","byteLength":53760},{"uri":"data:application/octet-stream;base64,","byteLength":30720},{"uri":"data:application/octet-stream;base64,","byteLength":583680}],"bufferViews":[{"buffer":0,"byteOffset":0,"byteLength":33792,"target":34963},{"buffer":0,"byteOffset":33792,"byteLength":67584,"target":34962},{"buffer":0,"byteOffset":101376,"byteLength":67584,"target":34962},{"buffer":1,"byteOffset":0,"byteLength":11520,"target":34963},{"buffer":1,"byteOffset":11520,"byteLength":23040,"target":34962},{"buffer":1,"byteOffset":34560,"byteLength":23040,"target":34962},{"buffer":2,"byteOffset":0,"byteLength":11520,"target":34963},{"buffer":2,"byteOffset":11520,"byteLength":23040,"target":34962},{"buffer":2,"byteOffset":34560,"byteLength":23040,"target":34962},{"buffer":3,"byteOffset":0,"byteLength":61440,"target":34963},{"buffer":3,"byteOffset":61440,"byteLength":122880,"target":34962},{"buffer":3,"byteOffset":184320,"byteLength":122880,"target":34962},{"buffer":4,"byteOffset":0,"byteLength":61440,"target":34963},{"buffer":4,"byteOffset":61440,"byteLength":122880,"target":34962},{"buffer":4,"byteOffset":184320,"byteLength":122880,"target":34962},{"buffer":5,"byteOffset":0,"byteLength":9216,"target":34963},{"buffer":5,"byteOffset":9216,"byteLength":18432,"target":34962},{"buffer":5,"byteOffset":27648,"byteLength":18432,"target":34962},{"buffer":6,"byteOffset":0,"byteLength":6144,"target":34963},{"buffer":6,"byteOffset":6144,"byteLength":12288,"target":34962},{"buffer":6,"byteOffset":18432,"byteLength":12288,"target":34962},{"buffer":7,"byteOffset":0,"byteLength":6144,"target":34963},{"buffer":7,"byteOffset":6144,"byteLength":12288,"target":34962},{"buffer":7,"byteOffset":18432,"byteLength":12288,"target":34962},{"buffer":8,"byteOffset":0,"byteLength":6144,"target":34963},{"buffer":8,"byteOffset":6144,"byteLength":12288,"target":34962},{"buffer":8,"byteOffset":18432,"byteLength":12288,"target":34962},{"buffer":9,"byteOffset":0,"byteLength":6144,"target":34963},{"buffer":9,"byteOffset":6144,"byteLength":12288,"target":34962},{"buffer":9,"byteOffset":18432,"byteLength":12288,"target":34962},{"buffer":10,"byteOffset":0,"byteLength":6144,"target":34963},{"buffer":10,"byteOffset":6144,"byteLength":12288,"target":34962},{"buffer":10,"byteOffset":18432,"byteLength":12288,"target":34962},{"buffer":11,"byteOffset":0,"byteLength":6144,"target":34963},{"buffer":11,"byteOffset":6144,"byteLength":12288,"target":34962},{"buffer":11,"byteOffset":18432,"byteLength":12288,"target":34962},{"buffer":12,"byteOffset":0,"byteLength":6144,"target":34963},{"buffer":12,"byteOffset":6144,"byteLength":12288,"target":34962},{"buffer":12,"byteOffset":18432,"byteLength":12288,"target":34962},{"buffer":13,"byteOffset":0,"byteLength":6144,"target":34963},{"buffer":13,"byteOffset":6144,"byteLength":12288,"target":34962},{"buffer":13,"byteOffset":18432,"byteLength":12288,"target":34962},{"buffer":14,"byteOffset":0,"byteLength":10752,"target":34963},{"buffer":14,"byteOffset":10752,"byteLength":21504,"target":34962},{"buffer":14,"byteOffset":32256,"byteLength":21504,"target":34962},{"buffer":15,"byteOffset":0,"byteLength":10752,"target":34963},{"buffer":15,"byteOffset":10752,"byteLength":21504,"target":34962},{"buffer":15,"byteOffset":32256,"byteLength":21504,"target":34962},{"buffer":16,"byteOffset":0,"byteLength":6144,"target":34963},{"buffer":16,"byteOffset":6144,"byteLength":12288,"target":34962},{"buffer":16,"byteOffset":18432,"byteLength":12288,"target":34962},{"buffer":17,"byteOffset":0,"byteLength":116736,"target":34963},{"buffer":17,"byteOffset":116736,"byteLength":233472,"target":34962},{"buffer":17,"byteOffset":350208,"byteLength":233472,"target":34962}],"accessors":[{"bufferView":0,"byteOffset":0,"componentType":5125,"count":8448,"type":"SCALAR","min":[0],"max":[5631]},{"bufferView":1,"byteOffset":0,"componentType":5126,"count":5632,"type":"VEC3","min":[-113,-72,-32.601627349853516],"max":[113,72,33.398353576660156]},{"bufferView":2,"byteOffset":0,"componentType":5126,"count":5632,"type":"VEC3","min":[-0.9985736012458801,-0.9999904632568359,-1],"max":[0.9985736012458801,0.9999904632568359,1]},{"bufferView":3,"byteOffset":0,"componentType":5125,"count":2880,"type":"SCALAR","min":[0],"max":[1919]},{"bufferView":4,"byteOffset":0,"componentType":5126,"count":1920,"type":"VEC3","min":[-72.3624267578125,-136.6313934326172,-68.6792984008789],"max":[72.3624267578125,134.33975219726562,195.85765075683594]},{"bufferView":5,"byteOffset":0,"componentType":5126,"count":1920,"type":"VEC3","min":[-1,-0.9999998807907104,-1],"max":[1,1,1]},{"bufferView":6,"byteOffset":0,"componentType":5125,"count":2880,"type":"SCALAR","min":[0],"max":[1919]},{"bufferView":7,"byteOffset":0,"componentType":5126,"count":1920,"type":"VEC3","min":[-72.3624267578125,-136.6313934326172,-68.67929077148438],"max":[72.3624267578125,134.33975219726562,195.85763549804688]},{"bufferView":8,"byteOffset":0,"componentType":5126,"count":1920,"type":"VEC3","min":[-1,-0.9999998807907104,-1],"max":[1,1,1]},{"bufferView":9,"byteOffset":0,"componentType":5125,"count":15360,"type":"SCALAR","min":[0],"max":[10239]},{"bufferView":10,"byteOffset":0,"componentType":5126,"count":10240,"type":"VEC3","min":[-72.4210205078125,-74,-36.03515625],"max":[69.7977294921875,74,43.14820098876953]},{"bufferView":11,"byteOffset":0,"componentType":5126,"count":10240,"type":"VEC3","min":[-1,-1,-1],"max":[1,1,1]},{"bufferView":12,"byteOffset":0,"componentType":5125,"count":15360,"type":"SCALAR","min":[0],"max":[10239]},{"bufferView":13,"byteOffset":0,"componentType":5126,"count":10240,"type":"VEC3","min":[-72.4210205078125,-74,-36.03515625],"max":[69.7977294921875,74,43.14820098876953]},{"bufferView":14,"byteOffset":0,"componentType":5126,"count":10240,"type":"VEC3","min":[-1,-1,-1],"max":[1,1,1]},{"bufferView":15,"byteOffset":0,"componentType":5125,"count":2304,"type":"SCALAR","min":[0],"max":[1535]},{"bufferView":16,"byteOffset":0,"componentType":5126,"count":1536,"type":"VEC3","min":[-64.85717010498047,-53.31867980957031,-53.3231086730957],"max":[57.142845153808594,75.68132019042969,58.676856994628906]},{"bufferView":17,"byteOffset":0,"componentType":5126,"count":1536,"type":"VEC3","min":[-0.9988170862197876,-0.9999663233757019,-0.9999992251396179],"max":[0.999503493309021,0.9994911551475525,0.9999415278434753]},{"bufferView":18,"byteOffset":0,"componentType":5125,"count":1536,"type":"SCALAR","min":[0],"max":[1023]},{"bufferView":19,"byteOffset":0,"componentType":5126,"count":1024,"type":"VEC3","min":[-20.500003814697266,-25.5,-12],"max":[20.500003814697266,25.5,12]},{"bufferView":20,"byteOffset":0,"componentType":5126,"count":1024,"type":"VEC3","min":[-1,-1,-1],"max":[1,1,1]},{"bufferView":21,"byteOffset":0,"componentType":5125,"count":1536,"type":"SCALAR","min":[0],"max":[1023]},{"bufferView":22,"byteOffset":0,"componentType":5126,"count":1024,"type":"VEC3","min":[-20.5,-25.5,-16.5],"max":[20.5,25.5,16.5]},{"bufferView":23,"byteOffset":0,"componentType":5126,"count":1024,"type":"VEC3","min":[-1,-1,-1],"max":[1,1,1]},{"bufferView":24,"byteOffset":0,"componentType":5125,"count":1536,"type":"SCALAR","min":[0],"max":[1023]},{"bufferView":25,"byteOffset":0,"componentType":5126,"count":1024,"type":"VEC3","min":[-20,-25.5,-12.5],"max":[20,25.5,12.5]},{"bufferView":26,"byteOffset":0,"componentType":5126,"count":1024,"type":"VEC3","min":[-1,-1,-1],"max":[1,1,1]},{"bufferView":27,"byteOffset":0,"componentType":5125,"count":1536,"type":"SCALAR","min":[0],"max":[1023]},{"bufferView":28,"byteOffset":0,"componentType":5126,"count":1024,"type":"VEC3","min":[-29.999984741210938,-28.499996185302734,-16.5],"max":[29.999984741210938,28.499996185302734,16.5]},{"bufferView":29,"byteOffset":0,"componentType":5126,"count":1024,"type":"VEC3","min":[-1,-1,-1],"max":[1,1,1]},{"bufferView":30,"byteOffset":0,"componentType":5125,"count":1536,"type":"SCALAR","min":[0],"max":[1023]},{"bufferView":31,"byteOffset":0,"componentType":5126,"count":1024,"type":"VEC3","min":[-31.500001907348633,-18.500003814697266,-12],"max":[31.500001907348633,18.500003814697266,12]},{"bufferView":32,"byteOffset":0,"componentType":5126,"count":1024,"type":"VEC3","min":[-1,-1,-1],"max":[1,1,1]},{"bufferView":33,"byteOffset":0,"componentType":5125,"count":1536,"type":"SCALAR","min":[0],"max":[1023]},{"bufferView":34,"byteOffset":0,"componentType":5126,"count":1024,"type":"VEC3","min":[-44.078125,-25.671875,-16.5],"max":[44.078125,25.671875,16.5]},{"bufferView":35,"byteOffset":0,"componentType":5126,"count":1024,"type":"VEC3","min":[-1,-1,-1],"max":[1,1,1]},{"bufferView":36,"byteOffset":0,"componentType":5125,"count":1536,"type":"SCALAR","min":[0],"max":[1023]},{"bufferView":37,"byteOffset":0,"componentType":5126,"count":1024,"type":"VEC3","min":[-29.50001335144043,-25.5,-16.5],"max":[29.50001335144043,25.5,16.5]},{"bufferView":38,"byteOffset":0,"componentType":5126,"count":1024,"type":"VEC3","min":[-1,-1,-1],"max":[1,1,1]},{"bufferView":39,"byteOffset":0,"componentType":5125,"count":1536,"type":"SCALAR","min":[0],"max":[1023]},{"bufferView":40,"byteOffset":0,"componentType":5126,"count":1024,"type":"VEC3","min":[-44,-43.49999237060547,-16.5],"max":[44,43.49999237060547,16.5]},{"bufferView":41,"byteOffset":0,"componentType":5126,"count":1024,"type":"VEC3","min":[-1,-1,-1],"max":[1,1,1]},{"bufferView":42,"byteOffset":0,"componentType":5125,"count":2688,"type":"SCALAR","min":[0],"max":[1791]},{"bufferView":43,"byteOffset":0,"componentType":5126,"count":1792,"type":"VEC3","min":[-44.709678649902344,-10.999998092651367,-16.5],"max":[44.709678649902344,10.999998092651367,16.5]},{"bufferView":44,"byteOffset":0,"componentType":5126,"count":1792,"type":"VEC3","min":[-1,-1,-1],"max":[1,1,1]},{"bufferView":45,"byteOffset":0,"componentType":5125,"count":2688,"type":"SCALAR","min":[0],"max":[1791]},{"bufferView":46,"byteOffset":0,"componentType":5126,"count":1792,"type":"VEC3","min":[-44.709678649902344,-10.999998092651367,-16.5],"max":[44.709678649902344,10.999998092651367,16.5]},{"bufferView":47,"byteOffset":0,"componentType":5126,"count":1792,"type":"VEC3","min":[-1,-1,-1],"max":[1,1,1]},{"bufferView":48,"byteOffset":0,"componentType":5125,"count":1536,"type":"SCALAR","min":[0],"max":[1023]},{"bufferView":49,"byteOffset":0,"componentType":5126,"count":1024,"type":"VEC3","min":[-44,-25.5,-21.5],"max":[44,25.5,21.5]},{"bufferView":50,"byteOffset":0,"componentType":5126,"count":1024,"type":"VEC3","min":[-1,-1,-1],"max":[1,1,1]},{"bufferView":51,"byteOffset":0,"componentType":5125,"count":29184,"type":"SCALAR","min":[0],"max":[19455]},{"bufferView":52,"byteOffset":0,"componentType":5126,"count":19456,"type":"VEC3","min":[-187,-187,-115.88542175292969],"max":[187,187,116.1146240234375]},{"bufferView":53,"byteOffset":0,"componentType":5126,"count":19456,"type":"VEC3","min":[-1,-1,-1],"max":[1,1,1]}],"extensions":{"KHR_lights_punctual":{"lights":[{"type":"directional","name":"Directional Light","color":[1,1,1],"intensity":0.75},{"type":"directional","name":"Default Directional Light","color":[1,1,1],"intensity":0.75}]}},"extensionsUsed":["KHR_lights_punctual"]}